<?xml version="1.0" ?><svg data-name="Layer 1" id="Layer_1" viewBox="0 0 128 128" xmlns="http://www.w3.org/2000/svg"><defs><style>.cls-1{fill:#ff7d00;}.cls-2{fill:#fff;}</style></defs><title/><ellipse class="cls-1" cx="64" cy="63.82" rx="60" ry="60.18"/><rect class="cls-2" height="64.19" width="69.62" x="29.19" y="32.88"/><rect class="cls-1" height="43.33" width="60.19" x="33.9" y="49"/><rect class="cls-2" height="6.93" width="10.16" x="52.42" y="52.64"/><rect class="cls-2" height="6.93" width="10.16" x="65.42" y="52.64"/><rect class="cls-2" height="6.93" width="10.16" x="78.42" y="52.64"/><rect class="cls-2" height="6.93" width="10.16" x="39.42" y="62.34"/><rect class="cls-2" height="6.93" width="10.16" x="52.42" y="62.34"/><rect class="cls-2" height="6.93" width="10.16" x="65.42" y="62.34"/><rect class="cls-2" height="6.93" width="10.16" x="78.42" y="62.34"/><rect class="cls-2" height="6.93" width="10.16" x="39.42" y="72.05"/><rect class="cls-2" height="6.93" width="10.16" x="52.42" y="72.05"/><rect class="cls-2" height="6.93" width="10.16" x="65.42" y="72.05"/><rect class="cls-2" height="6.93" width="10.16" x="78.42" y="72.05"/><rect class="cls-2" height="6.93" width="10.16" x="39.42" y="81.75"/><rect class="cls-2" height="6.93" width="10.16" x="52.42" y="81.75"/><rect class="cls-2" height="6.93" width="10.16" x="65.42" y="81.75"/><rect class="cls-1" height="7.78" width="30.1" x="33.9" y="37.3"/><rect class="cls-2" height="6.93" width="5.08" x="36.88" y="26.46"/><rect class="cls-2" height="6.93" width="5.08" x="89.02" y="26.46"/></svg>