<svg xmlns="http://www.w3.org/2000/svg" viewBox="-1 -1 102 102" id="icon-dislike" width="100%" height="100%">
<path fill="#B24242" d="M93 7.2H71.2c-2.5 0-4.5 2-4.5 4.5v36.8c0 2.5 2 4.5 4.5 4.5H93c2.5 0 4.5-2 4.5-4.5V11.7c0-2.5-2-4.5-4.5-4.5zm-35.7 5.7l-5-2.6c-.5-.2-1-.4-1.5-.4H15.4c-2.4 0-4.5 1.7-4.9 4.1L3.6 52.9c-.5 3.1 1.8 5.9 4.9 5.9h19.6l-2 11c-2.2 9.1 4 22.9 11 22 6.2-.8 5-8.6 5-8.9v-7.7c0-.6.2-1.2.5-1.8 2.1-3.4 10-16.6 11.8-19.6 2-3.4 7.6-5.3 7.6-5.3V13.3h-3c-.5 0-1.1-.1-1.7-.4z"></path>
</svg>